<?xml version="1.0" encoding="UTF-8" standalone="no"?> <svg width="32" height="32" viewBox="0 0 32 32" fill="none" xmlns="http://www.w3.org/2000/svg">
<path d="M17.3296 5.94813L17.9665 6.72495C18.3368 6.43214 18.4441 5.92084 18.2233 5.50079C18.0025 5.08073 17.5144 4.86746 17.0547 4.99016L17.3296 5.94813ZM26.4789 23.2355L27.1158 24.0123C27.4861 23.7195 27.5934 23.2082 27.3726 22.7882C27.1518 22.3681 26.6637 22.1548 26.204 22.2775L26.4789 23.2355ZM15.9699 7.49736C16.5067 7.24947 17.0536 7.05316 17.6046 6.9061L17.0547 4.99016C16.3926 5.16688 15.7371 5.40234 15.0955 5.69859L15.9699 7.49736ZM11.2795 19.5746C9.1264 15.145 11.1642 9.7165 15.9699 7.49736L15.0955 5.69859C9.37162 8.34179 6.78806 14.9084 9.46372 20.4131L11.2795 19.5746ZM23.8387 23.6863C19.0331 25.9054 13.4325 24.0042 11.2795 19.5746L9.46372 20.4131C12.1394 25.9178 18.9891 28.1282 24.713 25.485L23.8387 23.6863ZM25.8421 22.4587C25.2422 22.933 24.5727 23.3473 23.8387 23.6863L24.713 25.485C25.5904 25.0799 26.3938 24.5831 27.1158 24.0123L25.8421 22.4587ZM26.204 22.2775C21.8191 23.4479 17.1925 21.5103 15.2795 17.5746L13.4637 18.4131C15.8391 23.3 21.5119 25.5926 26.7539 24.1935L26.204 22.2775ZM15.2795 17.5746C13.4548 13.8205 14.6361 9.35812 17.9665 6.72495L16.6928 5.17132C12.7067 8.32301 11.1986 13.753 13.4637 18.4131L15.2795 17.5746Z" fill="url(#paint0_linear)"/>
<path d="M18.1483 13.906L20.1151 14.8828L21.676 13.3614L21.3306 15.4865L23.2974 16.4633L21.1172 16.7998L20.7719 18.9249L19.7698 17.0078L17.5896 17.3444L19.1504 15.8231L18.1483 13.906Z" fill="black" stroke="url(#paint1_linear)" stroke-width="2" stroke-linecap="square" stroke-linejoin="round"/>
<defs>
<linearGradient id="paint0_linear" x1="11.9012" y1="8.27494" x2="20.2843" y2="26.4289" gradientUnits="userSpaceOnUse">
<stop stop-color="#00C9FF"/>
<stop offset="1" stop-color="#92FE9D"/>
</linearGradient>
<linearGradient id="paint1_linear" x1="18.1483" y1="13.906" x2="22.3349" y2="18.2013" gradientUnits="userSpaceOnUse">
<stop stop-color="#00C9FF"/>
<stop offset="1" stop-color="#92FE9D"/>
</linearGradient>
</defs>
</svg>
